<svg width="100" height="100" viewBox="0 0 100 100" fill="none" xmlns="http://www.w3.org/2000/svg">
<path d="M0 10C0 4.47715 4.47715 0 10 0H90C95.5228 0 100 4.47715 100 10V90C100 95.5228 95.5228 100 90 100H10C4.47715 100 0 95.5228 0 90V10Z" fill="url(#paint0_linear_5_67)"/>
<path d="M22.4228 21.3496C29.7368 14.0826 39.6566 10 50 10C60.3434 10 70.2632 14.0826 77.5772 21.3496C84.8911 28.6166 89 38.4729 89 48.75H86.4839C86.4839 39.1359 82.64 29.9156 75.798 23.1174C68.9559 16.3192 59.6761 12.5 50 12.5C40.3239 12.5 31.0441 16.3192 24.202 23.1174C17.36 29.9156 13.5161 39.1359 13.5161 48.75H11C11 38.4729 15.1089 28.6166 22.4228 21.3496Z" fill="#FF0000"/>
<path d="M22.4228 78.6504C15.1089 71.3834 11 61.5271 11 51.25H13.5161C13.5161 60.8641 17.36 70.0844 24.202 76.8826C31.0441 83.6808 40.3239 87.5 50 87.5C59.6761 87.5 68.9559 83.6808 75.798 76.8826C82.64 70.0844 86.4839 60.8641 86.4839 51.25H89C89 61.5272 84.8911 71.3834 77.5772 78.6504C70.2632 85.9174 60.3434 90 50 90C39.6565 90 29.7367 85.9174 22.4228 78.6504Z" fill="white"/>
<path d="M39.7298 80C38.4928 80 37.0138 79.5499 35.2927 78.6496C33.6254 77.7494 32.1463 76.6903 30.8555 75.4723C29.6185 74.2544 29 73.2482 29 72.4539C29 71.0771 30.3177 64.0605 32.9531 51.4043C33.2758 49.9215 33.7867 47.4061 34.4859 43.8582C35.2389 40.2572 35.7498 37.6624 36.0188 36.0738L33.0338 36.5504C31.3665 35.0147 30.5328 33.0818 30.5328 30.7518C30.5328 29.1102 30.99 27.4156 31.9043 25.6681C36.2608 24.556 40.671 24 45.1351 24C49.868 24 54.2514 24.609 58.2852 25.827C62.3727 27.0449 65.6804 28.9248 68.2083 31.4667C70.7361 33.9556 72 37.0799 72 40.8397C72 44.1759 70.8706 47.3532 68.6116 50.3716C66.4065 53.3371 63.1795 55.7995 58.9306 57.7589C54.6817 59.7182 49.6798 60.9097 43.925 61.3333C43.5485 63.8752 43.2527 66.1787 43.0375 68.244C42.5535 72.2686 42.0963 75.234 41.666 77.1404C41.2358 79.0468 40.5904 80 39.7298 80ZM45.1351 51.4837C49.8143 50.5835 53.4178 49.2066 55.9456 47.3532C58.5272 45.4468 59.818 43.3286 59.818 40.9986C59.818 39.4099 59.0113 38.0861 57.3978 37.027C55.838 35.9149 53.7136 35.3589 51.0244 35.3589C50.0563 35.3589 49.0075 35.4383 47.8781 35.5972L46.5872 43.0638C45.8343 47.2473 45.3502 50.0539 45.1351 51.4837Z" fill="#355BA0"/>
<path d="M40.9812 78C39.8305 78 38.4547 77.574 36.8537 76.722C35.3027 75.87 33.9268 74.8676 32.7261 73.7149C31.5754 72.5622 31 71.6099 31 70.8582C31 69.5551 32.2258 62.9144 34.6773 50.9362C34.9775 49.5329 35.4528 47.1522 36.1032 43.7943C36.8036 40.3863 37.2789 37.9305 37.5291 36.4269L34.7523 36.878C33.2014 35.4246 32.4259 33.5953 32.4259 31.3901C32.4259 29.8364 32.8512 28.2326 33.7017 26.5787C37.7542 25.5262 41.8568 25 46.0094 25C50.4121 25 54.4897 25.5764 58.242 26.7291C62.0444 27.8818 65.1213 29.661 67.4728 32.0667C69.8243 34.4222 71 37.3792 71 40.9376C71 44.095 69.9494 47.1021 67.848 49.9589C65.7968 52.7655 62.7949 55.096 58.8424 56.9504C54.8899 58.8047 50.237 59.9324 44.8837 60.3333C44.5335 62.739 44.2583 64.9192 44.0582 66.8738C43.6079 70.6827 43.1826 73.4894 42.7824 75.2936C42.3821 77.0979 41.7817 78 40.9812 78ZM46.0094 51.0113C50.3621 50.1593 53.7142 48.8563 56.0657 47.1021C58.4672 45.2979 59.6679 43.2931 59.6679 41.0879C59.6679 39.5844 58.9174 38.3314 57.4165 37.3291C55.9656 36.2766 53.9894 35.7504 51.4878 35.7504C50.5872 35.7504 49.6116 35.8255 48.561 35.9759L47.3602 43.0425C46.6598 47.0019 46.2095 49.6582 46.0094 51.0113Z" fill="#FECA08"/>
<defs>
<linearGradient id="paint0_linear_5_67" x1="0" y1="0" x2="100" y2="100" gradientUnits="userSpaceOnUse">
<stop stop-color="#00ACB7"/>
<stop offset="1" stop-color="#00957A"/>
</linearGradient>
</defs>
</svg>
