<svg width="178" height="177" viewBox="0 0 178 177" fill="none" xmlns="http://www.w3.org/2000/svg">
<path fill-rule="evenodd" clip-rule="evenodd" d="M89.1999 0.300049C137.9 0.300049 177.4 39.8 177.4 88.6C177.4 137.3 137.9 176.8 89.1999 176.8C40.3999 176.8 0.899902 137.3 0.899902 88.6C0.899902 39.7 40.3999 0.300049 89.1999 0.300049Z" fill="#C03995"/>
<path fill-rule="evenodd" clip-rule="evenodd" d="M89.1997 0.300049C137.9 0.300049 177.4 39.8 177.4 88.6C177.4 137.3 137.9 176.8 89.1997 176.8V0.300049Z" fill="#B11F83"/>
<path fill-rule="evenodd" clip-rule="evenodd" d="M89.1999 20.4001C99.9999 20.4001 110.3 23.0001 119.4 27.5001C115.5 26.4001 111.5 25.8001 107.3 25.8001C81.6999 25.8001 60.9999 46.6001 60.9999 72.2001C60.9999 97.8001 81.6999 118.5 107.3 118.5C132.9 118.5 153.7 97.8001 153.7 72.2001C153.7 69.8001 153.5 67.3001 153.1 65.0001C155.8 72.3001 157.2 80.2001 157.2 88.6001C157.2 126.2 126.7 156.7 89.0999 156.7C51.3999 156.7 20.8999 126.2 20.8999 88.6001C20.9999 50.9001 51.4999 20.4001 89.1999 20.4001Z" fill="#F3B81A"/>
<path fill-rule="evenodd" clip-rule="evenodd" d="M89.1996 20.4001C99.9996 20.4001 110.3 23.0001 119.4 27.5001C115.5 26.4001 111.5 25.8001 107.3 25.8001C100.8 25.8001 94.6996 27.1001 89.1996 29.6001V20.4001ZM89.1996 114.8C94.7996 117.1 100.9 118.5 107.3 118.5C132.9 118.5 153.7 97.8001 153.7 72.2001C153.7 69.8001 153.5 67.3001 153.1 65.0001C155.8 72.3001 157.2 80.2001 157.2 88.6001C157.2 126.2 126.7 156.7 89.0996 156.7V114.8H89.1996Z" fill="#F48B20"/>
</svg>
