<svg width="177" height="178" viewBox="0 0 177 178" fill="none" xmlns="http://www.w3.org/2000/svg">
<path fill-rule="evenodd" clip-rule="evenodd" d="M88.4002 0.900024C137.2 0.900024 176.7 40.4 176.7 89.1C176.7 137.8 137.2 177.3 88.4002 177.3C39.7002 177.3 0.200195 137.8 0.200195 89.1C0.200195 40.4 39.7002 0.900024 88.4002 0.900024Z" fill="#F3B81A"/>
<path fill-rule="evenodd" clip-rule="evenodd" d="M88.4004 0.900024C137.2 0.900024 176.7 40.4 176.7 89.1C176.7 137.8 137.2 177.3 88.4004 177.3V0.900024Z" fill="#F3971F"/>
<path fill-rule="evenodd" clip-rule="evenodd" d="M37.1002 115.1L95.7002 24.5C99.6003 18.4 100.5 17.6 98.5002 25.2L84.3002 78.5L138.8 59.8C141.1 58.9 141.1 61.4 140 63.1L81.4002 153.7C77.5002 159.8 76.6002 160.6 78.6002 153L92.8002 99.7L38.3002 118.4C35.9002 119.3 35.9002 116.9 37.1002 115.1Z" fill="white"/>
<path fill-rule="evenodd" clip-rule="evenodd" d="M88.4004 35.5L95.6004 24.5C99.5004 18.4 100.4 17.6 98.4004 25.2L88.4004 62.5V35.5ZM88.4004 77L138.7 59.8C141 58.9 141 61.4 139.9 63.1L88.4004 142.7V115.8L92.7004 99.7999L88.4004 101.2V77Z" fill="#FFCB05"/>
</svg>
