<svg width="177" height="177" viewBox="0 0 177 177" fill="none" xmlns="http://www.w3.org/2000/svg">
<path fill-rule="evenodd" clip-rule="evenodd" d="M88.2 0.300049C136.9 0.300049 176.5 39.8 176.5 88.6C176.5 137.3 136.9 176.8 88.2 176.8C39.5 176.8 0 137.3 0 88.6C0 39.7 39.5 0.300049 88.2 0.300049Z" fill="#F6E294"/>
<path fill-rule="evenodd" clip-rule="evenodd" d="M88.2002 0.300049C136.9 0.300049 176.5 39.8 176.5 88.6C176.5 137.3 136.9 176.8 88.2002 176.8V0.300049Z" fill="#FACD85"/>
<path fill-rule="evenodd" clip-rule="evenodd" d="M37.8003 42.1C36.0003 46.9 62.6003 79.0001 62.4003 91.9001C62.3003 98.1001 32.0002 108.5 39.5002 110.6C44.4002 112 62.1002 109.3 61.0002 113.9C59.8002 118.6 47.8003 136.7 51.4003 135.6C58.7003 133.3 75.3002 122.4 84.5002 108.7C87.6002 104 88.7002 103.9 92.0002 108.7C101.1 122.5 117.7 133.3 125.1 135.6C128.7 136.7 116.6 118.6 115.5 113.9C114.3 109.2 132.1 112 137 110.6C144.5 108.5 114.2 98.1001 114.1 91.9001C113.8 79.0001 140.5 46.9 138.6 42.1C136.9 37.7 108.4 56.8001 93.4003 72.2001C88.4003 77.3 87.5002 76.9001 83.1002 72.2001C68.2002 56.8001 39.5003 37.6 37.8003 42.1Z" fill="#1FAFDF"/>
<path fill-rule="evenodd" clip-rule="evenodd" d="M88.2002 105.1C89.3002 105.1 90.4002 106.3 92.0002 108.7C101.1 122.5 117.7 133.3 125.1 135.6C128.7 136.7 116.6 118.6 115.5 113.9C114.3 109.2 132.1 112 137 110.6C144.5 108.5 114.2 98.1 114.1 91.9C113.8 79 140.5 46.9 138.6 42.1C136.9 37.7 108.4 56.8 93.4003 72.2C91.1003 74.6 89.6002 75.8 88.2002 75.9V105.1Z" fill="#0A87B3"/>
</svg>
