<svg width="177" height="177" viewBox="0 0 177 177" fill="none" xmlns="http://www.w3.org/2000/svg">
<path fill-rule="evenodd" clip-rule="evenodd" d="M88.7 0.300049C137.5 0.300049 177 39.8 177 88.6C177 137.3 137.5 176.8 88.7 176.8C40 176.8 0.5 137.3 0.5 88.6C0.5 39.7 40 0.300049 88.7 0.300049Z" fill="#B92025"/>
<path fill-rule="evenodd" clip-rule="evenodd" d="M88.7002 0.300049C137.5 0.300049 177 39.8 177 88.6C177 137.3 137.5 176.8 88.7002 176.8V0.300049Z" fill="#8F191C"/>
<path fill-rule="evenodd" clip-rule="evenodd" d="M51.4002 33.1C57.2002 33.1 62.0002 37.9 62.0002 43.8V64.8C62.0002 70.6 57.2002 75.4 51.4002 75.4C45.5002 75.4 40.7002 70.6 40.7002 64.8V43.8C40.8002 37.9 45.5002 33.1 51.4002 33.1ZM104.7 126.7C109.5 126.7 113.4 130.6 113.4 135.4V142.4C113.4 147.2 109.4 151.2 104.7 151.2H75.1002C70.3002 151.2 66.4002 147.2 66.4002 142.4V135.4C66.4002 130.6 70.3002 126.7 75.1002 126.7H104.7ZM128 80C132.8 80 136.8 83.9 136.8 88.7V113.5C136.8 118.3 132.8 122.3 128 122.3C114.2 122.3 100.3 122.3 86.5002 122.3C81.9002 122.3 78.3002 118.5 78.3002 114C78.3002 109.6 82.0002 105.8 86.5002 105.8H97.0002V88.8C97.0002 84 100.9 80.1 105.7 80.1H128V80ZM49.5002 80C44.7002 80 40.7002 83.9 40.7002 88.7V113.5C40.7002 118.3 44.7002 122.3 49.5002 122.3H65.0002C69.8002 122.3 73.7002 118.3 73.7002 113.5V101.3H81.9002C87.8002 101.3 92.6002 96.5 92.6002 90.6C92.6002 84.8 87.8002 80 81.9002 80C71.1002 80 60.3002 80 49.5002 80ZM127.3 37.7C132.4 37.7 136.8 41.9 136.8 47.2V65.9C136.8 71.1 132.5 75.4 127.3 75.4C122.1 75.4 117.8 71.2 117.8 65.9V47.2C117.8 42 122.1 37.7 127.3 37.7ZM77.1002 26C82.9002 26 87.7002 30.8 87.7002 36.6V64.8C87.7002 70.6 82.9002 75.4 77.1002 75.4C71.2002 75.4 66.4002 70.6 66.4002 64.8V36.6C66.5002 30.7 71.2002 26 77.1002 26ZM102.7 33.1C108.6 33.1 113.4 37.9 113.4 43.8V64.8C113.4 70.6 108.6 75.4 102.7 75.4C96.9002 75.4 92.1002 70.6 92.1002 64.8V43.8C92.1002 37.9 96.9002 33.1 102.7 33.1Z" fill="#E8E85F"/>
<path fill-rule="evenodd" clip-rule="evenodd" d="M88.7002 151.1V126.7H104.7C109.5 126.7 113.4 130.6 113.4 135.4V142.4C113.4 147.2 109.4 151.1 104.7 151.1H88.7002ZM88.7002 122.3V105.7H97.0002V88.7001C97.0002 83.9001 100.9 80.0001 105.7 80.0001H128C132.8 80.0001 136.8 83.9001 136.8 88.7001V113.5C136.8 118.3 132.8 122.3 128 122.3H88.7002ZM88.7002 98.8001V82.5001C91.0002 84.5001 92.6002 87.4001 92.6002 90.6001C92.6002 93.9001 91.0002 96.8001 88.7002 98.8001ZM127.3 37.7001C132.4 37.7001 136.8 41.9001 136.8 47.2001V65.9001C136.8 71.1001 132.5 75.4001 127.3 75.4001C122.1 75.4001 117.8 71.2001 117.8 65.9001V47.2001C117.8 42.0001 122.1 37.7001 127.3 37.7001ZM102.7 33.1001C108.6 33.1001 113.4 37.9001 113.4 43.8001V64.8001C113.4 70.6001 108.6 75.4001 102.7 75.4001C96.9002 75.4001 92.1002 70.6001 92.1002 64.8001V43.8001C92.1002 37.9001 96.9002 33.1001 102.7 33.1001Z" fill="#BFD330"/>
</svg>
