<svg width="178" height="178" viewBox="0 0 178 178" fill="none" xmlns="http://www.w3.org/2000/svg">
<path fill-rule="evenodd" clip-rule="evenodd" d="M89.0998 0.900024C137.8 0.900024 177.3 40.4 177.3 89.1C177.3 137.8 137.8 177.3 89.0998 177.3C40.3998 177.3 0.799805 137.8 0.799805 89.1C0.799805 40.4 40.3998 0.900024 89.0998 0.900024Z" fill="#8B7E71"/>
<path fill-rule="evenodd" clip-rule="evenodd" d="M89.0996 0.900024C137.8 0.900024 177.3 40.4 177.3 89.1C177.3 137.8 137.8 177.3 89.0996 177.3V0.900024Z" fill="#745C44"/>
<path fill-rule="evenodd" clip-rule="evenodd" d="M9.99997 92.4C8.79997 107.7 18.1 77.2 39.8 69.2C79.8999 54.4 86.8 95.2 100.7 110.5C135.4 148.2 174.5 101.7 156.5 60.1C127.4 -7.90001 16.4 14.1 9.99997 92.4ZM155.5 113.9C154.9 116.9 155.7 117.9 157.3 118.2C160.2 118.8 161.7 119.1 163.5 121.4C165.4 123.8 167.7 122.4 167.6 117.4C167.4 109.7 157.4 105.3 155.5 113.9ZM91.5999 131.8C91.4999 135.6 95.3999 134.5 97.5999 134.2C98.5999 134.2 99.5 134.2 100.2 135C102.2 137.3 104.2 134.3 107.5 135.8C115.2 139 112.3 122.3 102.3 121.9C97.7 121.7 91.7999 124.5 91.5999 131.8ZM128.4 110.6C122.7 117.3 111.6 113.3 106 108.4C100.4 103.6 99.7 95.4 104.3 89.9C110.2 83.1 134.2 104 128.4 110.6ZM142.1 109.3C146.2 108.9 151.3 103.3 152.6 98.1C154 92.2 150.9 86.5 145.7 85.4C137.3 83.9 134 110.1 142.1 109.3Z" fill="white"/>
<path fill-rule="evenodd" clip-rule="evenodd" d="M89.0996 92.3C92.9996 99.2 96.5996 105.9 100.7 110.4C135.4 148.1 174.5 101.6 156.5 60C144 31 116.8 18.4 89.0996 19.5V92.3ZM155.5 113.9C154.9 116.9 155.7 117.9 157.3 118.2C160.2 118.8 161.7 119.1 163.5 121.4C165.4 123.8 167.7 122.4 167.6 117.4C167.4 109.7 157.4 105.3 155.5 113.9ZM91.5996 131.8C91.4996 135.6 95.3996 134.5 97.5996 134.2C98.5996 134.2 99.4996 134.2 100.2 135C102.2 137.3 104.2 134.3 107.5 135.8C115.2 139 112.3 122.3 102.3 121.9C97.6996 121.7 91.7996 124.5 91.5996 131.8ZM128.4 110.6C122.7 117.3 111.6 113.3 106 108.4C100.4 103.6 99.6996 95.4 104.3 89.9C110.2 83.1 134.2 104 128.4 110.6ZM142.1 109.3C146.2 108.9 151.3 103.3 152.6 98.1C154 92.2 150.9 86.5 145.7 85.4C137.3 83.9 134 110.1 142.1 109.3Z" fill="#E5E6E7"/>
</svg>
