<svg width="178" height="177" viewBox="0 0 178 177" fill="none" xmlns="http://www.w3.org/2000/svg">
<path fill-rule="evenodd" clip-rule="evenodd" d="M88.9998 0.400024C137.8 0.400024 177.3 39.9 177.3 88.6C177.3 137.4 137.8 176.9 88.9998 176.9C40.2998 176.9 0.799805 137.4 0.799805 88.6C0.799805 39.9 40.1998 0.400024 88.9998 0.400024Z" fill="#56B947"/>
<path fill-rule="evenodd" clip-rule="evenodd" d="M89 0.400024C137.8 0.400024 177.3 39.9 177.3 88.6C177.3 137.4 137.8 176.9 89 176.9V0.400024Z" fill="#459F46"/>
<path fill-rule="evenodd" clip-rule="evenodd" d="M85.2001 26.6001C68.0001 40.6001 17.1 103.7 76.6 136.8C89.7 144.1 85.4001 159.9 85.4001 159.9C87.0001 160.2 90.8001 160.2 92.4001 159.9C92.4001 159.9 88.1001 144.2 101.2 136.8C168.8 98.2001 105.6 73.2001 92.7001 26.7001C91.6001 22.7001 88.2001 24.1001 85.2001 26.6001Z" fill="#E8E85F"/>
<path fill-rule="evenodd" clip-rule="evenodd" d="M88.9999 160.1C90.2999 160.1 91.6999 160 92.3999 159.9C92.3999 159.9 88.0999 144.2 101.2 136.8C168.8 98.2001 105.6 73.2001 92.6999 26.7001C91.9999 24.4001 90.5999 23.9001 88.8999 24.4001V160.1H88.9999Z" fill="#BFD330"/>
</svg>
