<svg width="177" height="178" viewBox="0 0 177 178" fill="none" xmlns="http://www.w3.org/2000/svg">
<path fill-rule="evenodd" clip-rule="evenodd" d="M88.2 0.900024C136.9 0.900024 176.5 40.4 176.5 89.1C176.5 137.8 136.9 177.3 88.2 177.3C39.5 177.3 0 137.8 0 89.1C0 40.4 39.5 0.900024 88.2 0.900024Z" fill="#F3B81A"/>
<path fill-rule="evenodd" clip-rule="evenodd" d="M88.2002 0.900024C136.9 0.900024 176.5 40.4 176.5 89.1C176.5 137.8 136.9 177.3 88.2002 177.3V0.900024Z" fill="#F48B20"/>
<path fill-rule="evenodd" clip-rule="evenodd" d="M88.2002 26.9C113.3 26.9 133.7 66.8 133.7 101.1C133.7 167.9 42.7002 167.9 42.7002 101.1C42.7002 66.8 63.1002 26.9 88.2002 26.9Z" fill="#B56428"/>
<path fill-rule="evenodd" clip-rule="evenodd" d="M88.2002 26.9C113.3 26.9 133.7 66.8 133.7 101.1C133.7 134.5 111 151.3 88.2002 151.3V26.9Z" fill="#915022"/>
</svg>
