<svg width="177" height="177" viewBox="0 0 177 177" fill="none" xmlns="http://www.w3.org/2000/svg">
<path fill-rule="evenodd" clip-rule="evenodd" d="M88.4002 0.300049C137.2 0.300049 176.7 39.8 176.7 88.6C176.7 137.3 137.2 176.8 88.4002 176.8C39.7002 176.8 0.200195 137.3 0.200195 88.6C0.200195 39.7 39.7002 0.300049 88.4002 0.300049Z" fill="#B92025"/>
<path fill-rule="evenodd" clip-rule="evenodd" d="M88.4004 0.300049C137.2 0.300049 176.7 39.8 176.7 88.6C176.7 137.3 137.2 176.8 88.4004 176.8V0.300049Z" fill="#8F191C"/>
<path fill-rule="evenodd" clip-rule="evenodd" d="M88.4003 28.3C109.8 28.3 127 45.6001 127 66.9001C127 79.4001 121.1 90.5001 111.9 97.5001C106.2 119.1 70.8004 119.1 65.0004 97.5001C55.9004 90.5001 50.0004 79.4001 50.0004 66.9001C50.0004 45.6001 67.2003 28.3 88.4003 28.3ZM143.3 115.3C144.1 118.2 142.3 121.3 139.4 122.1L109.9 130L139.4 137.9C142.3 138.7 144.1 141.7 143.3 144.7C142.5 147.6 139.4 149.4 136.5 148.6L88.5004 135.7L40.6004 148.6C37.6004 149.4 34.6003 147.6 33.8003 144.7C33.0003 141.7 34.8004 138.7 37.7004 137.9L67.2004 130L37.7004 122.1C34.8004 121.3 33.0003 118.2 33.8003 115.3C34.6003 112.3 37.6004 110.5 40.6004 111.4L88.5004 124.2L136.5 111.4C139.4 110.5 142.5 112.3 143.3 115.3ZM74.5004 51.6C78.9004 51.6 82.6004 57.9 82.6004 65.6C82.6004 73.4 78.9004 79.6 74.5004 79.6C69.9004 79.6 66.4003 73.4 66.4003 65.6C66.4003 58 70.0004 51.6 74.5004 51.6ZM102.4 51.6C107 51.6 110.5 57.9 110.5 65.6C110.5 73.4 106.9 79.6 102.4 79.6C98.0003 79.6 94.3003 73.4 94.3003 65.6C94.3003 58 98.0003 51.6 102.4 51.6ZM84.1004 84.1C85.0004 84.1 85.8003 85.3001 85.8003 86.9001C85.8003 88.5001 85.0004 89.8 84.1004 89.8C83.2004 89.8 82.4003 88.5001 82.4003 86.9001C82.4003 85.3001 83.2004 84.1 84.1004 84.1ZM92.9003 84.1C93.8003 84.1 94.6004 85.3001 94.6004 86.9001C94.6004 88.5001 93.8003 89.8 92.9003 89.8C91.9003 89.8 91.2004 88.5001 91.2004 86.9001C91.2004 85.3001 91.9003 84.1 92.9003 84.1Z" fill="white"/>
<path fill-rule="evenodd" clip-rule="evenodd" d="M88.4004 28.3C109.8 28.3 127 45.6001 127 66.9001C127 79.4001 121.1 90.5001 111.9 97.5001C109.1 108.3 98.8004 113.6 88.4004 113.6V28.3ZM88.4004 135.6V124.1L136.4 111.3C139.3 110.4 142.4 112.2 143.2 115.2C144 118.1 142.2 121.2 139.3 122L109.8 129.9L139.3 137.8C142.2 138.6 144 141.6 143.2 144.6C142.4 147.5 139.3 149.3 136.4 148.5L88.4004 135.6ZM102.4 51.6C107 51.6 110.5 57.9 110.5 65.6C110.5 73.4 106.9 79.6 102.4 79.6C98.0004 79.6 94.3004 73.4 94.3004 65.6C94.3004 58 98.0004 51.6 102.4 51.6ZM92.9004 84.1C93.8004 84.1 94.6004 85.3001 94.6004 86.9001C94.6004 88.5001 93.8004 89.8 92.9004 89.8C91.9004 89.8 91.2004 88.5001 91.2004 86.9001C91.2004 85.3001 91.9004 84.1 92.9004 84.1Z" fill="#E5E6E7"/>
</svg>
