<svg width="177" height="177" viewBox="0 0 177 177" fill="none" xmlns="http://www.w3.org/2000/svg">
<path fill-rule="evenodd" clip-rule="evenodd" d="M88.2 0.400024C136.9 0.400024 176.5 39.9 176.5 88.6C176.5 137.4 136.9 176.9 88.2 176.9C39.5 176.9 0 137.4 0 88.6C0 39.9 39.5 0.400024 88.2 0.400024Z" fill="#533E28"/>
<path fill-rule="evenodd" clip-rule="evenodd" d="M88.2002 0.400024C136.9 0.400024 176.5 39.9 176.5 88.6C176.5 137.4 136.9 176.9 88.2002 176.9V0.400024Z" fill="#352414"/>
<path fill-rule="evenodd" clip-rule="evenodd" d="M90.1997 132.2L126.3 69.3C127.2 67.6 126.1 65.9 124.3 65.9L51.7998 66.1C49.5998 66.1 48.6998 67.7 49.7998 69.5L86.2998 132.2C87.3998 134.2 88.9997 134.2 90.1997 132.2ZM75.4998 159.1L58.7998 149.5C56.9998 148.4 56.0997 147.1 56.0997 144.9V136C56.0997 132.7 57.6997 132.2 60.1997 133.8L82.6997 146.7C85.6997 148.7 90.2998 148.7 93.2998 146.7L115.7 133.8C118.4 132.2 119.9 132.7 119.9 136V144.9C119.9 147 119 148.3 117.2 149.5L100.4 159.1C92.1998 164 83.8998 164 75.4998 159.1ZM155.1 65V84.4C155.1 86.4 154.3 88 152.5 89L144.7 93.4C141.8 95.1 140.7 94 140.7 91V65C140.9 61.3 138.6 57.4 135.4 55.9L113 42.9C110.3 41.5 109.9 39.9 112.8 38.2L120.6 33.6C122.4 32.6 124 32.7 125.8 33.7L142.6 43.4C150.9 48.2 155.1 55.5 155.1 65ZM33.7998 43.2L50.4998 33.5C52.2998 32.5 54.0997 32.4 55.6997 33.4L63.4998 37.8C66.3998 39.5 65.8998 41.1 63.3998 42.6L40.8998 55.5C37.6998 57.2 35.4997 61.2 35.6997 64.7V90.5C35.6997 93.5 34.4997 94.7 31.6997 93.1L23.8998 88.7C22.0998 87.7 21.2998 86.1 21.2998 84V64.8C21.3998 55.2 25.4998 48 33.7998 43.2Z" fill="#8B7E71"/>
<path fill-rule="evenodd" clip-rule="evenodd" d="M90.2002 132.2L126.3 69.3001C127.2 67.6001 126.1 65.9001 124.3 65.9001L88.2002 66.0001V133.8C88.9002 133.8 89.6002 133.2 90.2002 132.2ZM88.2002 148.2V162.8C92.3002 162.7 96.4003 161.6 100.4 159.1L117.2 149.5C119 148.4 119.9 147.1 119.9 144.9V136C119.9 132.7 118.3 132.2 115.7 133.8L93.3003 146.7C91.9003 147.7 90.1002 148.2 88.2002 148.2ZM155.1 65.0001V84.4001C155.1 86.4001 154.3 88.0001 152.5 89.0001L144.7 93.4001C141.8 95.1001 140.7 94.0001 140.7 91.0001V65.0001C140.9 61.3001 138.6 57.4001 135.4 55.9001L113 42.9001C110.3 41.5001 109.9 39.9001 112.8 38.2001L120.6 33.6001C122.4 32.6001 124 32.7001 125.8 33.7001L142.6 43.4001C150.9 48.2001 155.1 55.5001 155.1 65.0001Z" fill="#745C44"/>
</svg>
