<svg width="178" height="177" viewBox="0 0 178 177" fill="none" xmlns="http://www.w3.org/2000/svg">
<path fill-rule="evenodd" clip-rule="evenodd" d="M88.9998 0.300049C137.8 0.300049 177.3 39.8 177.3 88.6C177.3 137.3 137.8 176.8 88.9998 176.8C40.2998 176.8 0.799805 137.3 0.799805 88.6C0.799805 39.7 40.1998 0.300049 88.9998 0.300049Z" fill="#56B947"/>
<path fill-rule="evenodd" clip-rule="evenodd" d="M89 0.300049C137.8 0.300049 177.3 39.8 177.3 88.6C177.3 137.3 137.8 176.8 89 176.8V0.300049Z" fill="#459F46"/>
<path fill-rule="evenodd" clip-rule="evenodd" d="M106.3 62.2C108.6 63.3 110.9 64.6 112.9 66.2L118.8 60.3C120.1 59 122.4 59 123.7 60.3L129.6 66.2C130.9 67.5 130.9 69.8 129.6 71.1C128.3 72.4 126.2 72.4 124.8 71.1L121.2 67.5L117.6 70.9C121.5 75.7 124.2 81.9 125.1 89.5L126.1 88.5C127.4 87.2 129.5 87.2 130.9 88.5L136.9 94.4C138.2 95.7 138.2 97.8 136.9 99.2C135.6 100.5 133.3 100.5 132.1 99.2L128.5 95.8L125.3 98.9C125 105 123.6 110.8 121.5 115.9L125.7 116C127.6 116 129.1 117.6 129.1 119.3L129 127.8C129 129.7 127.4 131.1 125.6 131.1C123.8 131.1 122.3 129.5 122.3 127.8V122.8L118.2 122.7C111.5 133.7 101 140.8 88.9996 140.8C77.0996 140.8 66.4996 133.7 59.8996 122.7L55.7996 122.8V127.8C55.7996 129.6 54.1996 131.1 52.4996 131.1C50.5996 131.1 49.0996 129.7 49.0996 127.8L48.9996 119.3C48.9996 117.5 50.5996 116 52.3996 116L56.5996 115.9C54.4996 110.8 53.1996 105 52.7996 98.9L49.5996 95.8L45.9996 99.2C44.7996 100.5 42.5996 100.5 41.1996 99.2C39.8996 97.9 39.8996 95.8 41.1996 94.4L47.1996 88.5C48.4996 87.2 50.5996 87.2 51.9996 88.5L52.9996 89.5C53.8996 81.9 56.5996 75.7 60.4996 70.9L56.8996 67.5L53.2996 71.1C51.9996 72.4 49.8996 72.4 48.4996 71.1C47.1996 69.8 47.1996 67.5 48.4996 66.2L54.3996 60.3C55.6996 59 57.9996 59 59.1996 60.3L65.1996 66.2C67.1996 64.6 69.3996 63.3 71.7996 62.2C71.6996 61.6 71.5996 61 71.5996 60.3C71.5996 54.4 74.5996 47.5 80.1996 44L77.2996 41.1L75.1996 43.2C74.3996 44 73.1996 44 72.3996 43.2C71.4996 42.4 71.4996 41.1 72.3996 40.3L75.7996 36.9C76.5996 36.1 77.8996 36.1 78.6996 36.9L83.9996 42.2C85.5996 41.6 87.1996 41.4 88.9996 41.4C90.8996 41.4 92.5996 41.6 94.0996 42.2L99.3996 36.9C100.2 36.1 101.5 36.1 102.3 36.9L105.7 40.3C106.6 41.1 106.6 42.4 105.7 43.2C104.9 44 103.7 44 102.9 43.2L100.8 41.1L97.9996 44C103.6 47.6 106.6 54.5 106.6 60.3C106.5 61 106.4 61.7 106.3 62.2Z" fill="#E8E85F"/>
<path fill-rule="evenodd" clip-rule="evenodd" d="M106.3 62.2C108.6 63.3 110.9 64.6 112.9 66.2L118.8 60.3C120.1 59 122.4 59 123.7 60.3L129.6 66.2C130.9 67.5 130.9 69.8 129.6 71.1C128.3 72.4 126.2 72.4 124.8 71.1L121.2 67.5L117.6 70.9C121.5 75.7 124.2 81.9 125.1 89.5L126.1 88.5C127.4 87.2 129.5 87.2 130.9 88.5L136.9 94.4C138.2 95.7 138.2 97.8 136.9 99.2C135.6 100.5 133.3 100.5 132.1 99.2L128.5 95.8L125.3 98.9C125 105 123.6 110.8 121.5 115.9L125.7 116C127.6 116 129.1 117.6 129.1 119.3L129 127.8C129 129.7 127.4 131.1 125.6 131.1C123.8 131.1 122.3 129.5 122.3 127.8V122.8L118.2 122.7C111.5 133.7 101 140.8 89 140.8V41.4C90.9 41.4 92.6 41.6 94.1 42.2L99.4 36.9C100.2 36.1 101.5 36.1 102.3 36.9L105.7 40.3C106.6 41.1 106.6 42.4 105.7 43.2C104.9 44 103.7 44 102.9 43.2L100.8 41.1L98 44C103.6 47.6 106.6 54.5 106.6 60.3C106.5 61 106.4 61.7 106.3 62.2Z" fill="#BFD330"/>
</svg>
