<svg width="178" height="178" viewBox="0 0 178 178" fill="none" xmlns="http://www.w3.org/2000/svg">
<path fill-rule="evenodd" clip-rule="evenodd" d="M88.9998 0.900024C137.8 0.900024 177.3 40.4 177.3 89.1C177.3 137.8 137.8 177.3 88.9998 177.3C40.2998 177.3 0.799805 137.8 0.799805 89.1C0.799805 40.4 40.1998 0.900024 88.9998 0.900024Z" fill="#56B947"/>
<path fill-rule="evenodd" clip-rule="evenodd" d="M89 0.900024C137.8 0.900024 177.3 40.4 177.3 89.1C177.3 137.8 137.8 177.3 89 177.3V0.900024Z" fill="#459F46"/>
<path fill-rule="evenodd" clip-rule="evenodd" d="M68.7 30.4001C113.9 4.20006 169.5 42.9001 156.7 99.2001C143 158.8 84.6 166.3 38.7 146.1C28.2 141.5 28.7 132.8 37.3 126.1C82.3 91.4001 86.7 70.9001 89.6 70.6001C93.6 70.2001 88.4 102.7 97.5 105.6C107.4 108.6 124.6 90.1001 124.2 66.7001C123.9 43.2001 99.8 29.4001 68.9 34.7001C61.2 35.9001 61.7 34.4001 68.7 30.4001ZM85.6 113.7C79.8 118.8 80.4 118.6 69.3 128.8C63.1 134.5 61.2 135.7 62.4 136C65.2 136.9 88.8 136.2 84.2 119.2C84 118.4 85.9 115.4 86.5 113.9C87.1 112.3 86.3 113 85.6 113.7Z" fill="#E8E85F"/>
<path fill-rule="evenodd" clip-rule="evenodd" d="M89 22.9C128.8 15.9 167.6 51 156.7 99.2C147.8 137.9 120 154.6 89 156V70.8C89.2 70.7 89.4 70.6 89.6 70.6C93.6 70.2 88.4 102.7 97.5 105.6C107.4 108.6 124.6 90.1 124.2 66.7C123.9 48.7 109.7 36.3 89.1 34V22.9H89Z" fill="#BFD330"/>
</svg>
