<svg width="177" height="177" viewBox="0 0 177 177" fill="none" xmlns="http://www.w3.org/2000/svg">
<path fill-rule="evenodd" clip-rule="evenodd" d="M88.4002 0.400024C137.2 0.400024 176.7 39.9 176.7 88.6C176.7 137.4 137.2 176.9 88.4002 176.9C39.7002 176.9 0.200195 137.4 0.200195 88.6C0.200195 39.9 39.7002 0.400024 88.4002 0.400024Z" fill="#F48B20"/>
<path fill-rule="evenodd" clip-rule="evenodd" d="M88.4004 0.400024C137.2 0.400024 176.7 39.9 176.7 88.6C176.7 137.4 137.2 176.9 88.4004 176.9V0.400024Z" fill="#F37021"/>
<path fill-rule="evenodd" clip-rule="evenodd" d="M30.8001 109.1C33.4001 110 34.1001 115.4 39.0001 115C41.4001 114.8 41.0001 114.2 40.0001 112.1C37.2001 106 30.0001 89.5001 36.2001 78.2001C44.0001 64.2001 50.5001 58.3001 51.2001 54.8001C51.8001 51.5001 55.9001 59.5001 51.2001 68.8001C48.2001 74.7001 50.1001 79.3001 51.9001 81.8001C54.9001 85.9001 53.8001 83.5 54.1001 80.2001C54.8001 74.1001 58.0001 61.9001 72.7001 53.5001C92.9001 42.0001 76.1001 23.7001 79.5001 22.1001C82.9001 20.5001 103.2 28.9001 110.1 53.8001C116.9 78.7001 109.4 85.8 113.4 87.4C117.5 89 139 74.4001 141.8 68.5001C142.5 67.2001 143.4 67.6 144.1 69.4C146.7 75.2 148 94.3001 133.9 106.8C132.5 108 131.1 109.7 134 109.5C138.7 109.3 146.5 107.9 152.1 102.7C155.3 99.9 156.8 94.9 156 103.4C155.4 109.2 152.2 118.6 138.4 126C128.8 131.1 122.4 141.8 111.6 148.7C100.3 155.9 83.9001 157 71.2001 153C55.2001 148.1 59.2001 135.5 42.6001 127.8C33.8001 123.7 29.7001 113.3 29.6001 110C29.7001 109.1 29.9001 108.9 30.8001 109.1Z" fill="#B92025"/>
<path fill-rule="evenodd" clip-rule="evenodd" d="M88.4004 24.8C95.9004 28.9 105.6 38 110.1 53.9C116.9 78.8 109.4 85.9 113.4 87.5C117.5 89.1 139 74.5001 141.8 68.6001C142.5 67.3001 143.4 67.7 144.1 69.5C146.7 75.3 148 94.4 133.9 106.9C132.5 108.1 131.1 109.8 134 109.6C138.7 109.4 146.5 108 152.1 102.8C155.3 100 156.8 95 156 103.5C155.4 109.3 152.2 118.7 138.4 126.1C128.8 131.2 122.4 141.9 111.6 148.8C105 153 96.7004 155.1 88.4004 155.5V24.8Z" fill="#8F191C"/>
<path fill-rule="evenodd" clip-rule="evenodd" d="M85.5001 151.4C85.5001 151.4 70.2001 151 66.0001 142.4C61.8001 133.8 70.1001 131.7 66.9001 127.2C63.7001 122.6 61.3001 118.6 64.8001 119.9C68.1001 121.1 77.8001 127.7 78.3001 122.1C78.7001 116.4 73.3001 108.9 78.2001 103C83.0001 97.1 88.1001 95.5 88.3001 88.5C88.4001 81.5 94.3001 92.5 90.7001 98.1C87.1001 103.8 83.7001 105.3 89.4001 109.4C95.0001 113.6 96.4001 111.7 96.1001 116.7C95.8001 121.7 103.3 124.5 107.6 117.7C111.8 110.8 105.5 101.7 106.7 101.9C107.9 102.2 115.6 114.2 111.4 122C109.4 125.7 109.5 127.2 110.2 128.8C118.2 147.7 101 151.9 85.5001 151.4Z" fill="#F3B81A"/>
<path fill-rule="evenodd" clip-rule="evenodd" d="M88.4004 86.9001C89.4004 83.5001 94.0004 93.0001 90.7004 98.0001C89.9004 99.3001 89.1004 100.3 88.4004 101.3V86.9001ZM88.4004 108.7C88.7004 108.9 89.1004 109.1 89.4004 109.4C95.0004 113.6 96.4004 111.7 96.1004 116.7C95.8004 121.7 103.3 124.5 107.6 117.7C111.8 110.8 105.5 101.7 106.7 101.9C107.9 102.2 115.6 114.2 111.4 122C109.4 125.7 109.5 127.2 110.2 128.8C117.8 146.4 103.2 151.2 88.5004 151.4V108.7H88.4004Z" fill="#F48B20"/>
</svg>
