<svg width="178" height="177" viewBox="0 0 178 177" fill="none" xmlns="http://www.w3.org/2000/svg">
<path fill-rule="evenodd" clip-rule="evenodd" d="M89.0998 0.300049C137.8 0.300049 177.3 39.8 177.3 88.6C177.3 137.3 137.8 176.8 89.0998 176.8C40.3998 176.8 0.799805 137.3 0.799805 88.6C0.799805 39.7 40.3998 0.300049 89.0998 0.300049Z" fill="#1FAFDF"/>
<path fill-rule="evenodd" clip-rule="evenodd" d="M89.0996 0.300049C137.8 0.300049 177.3 39.8 177.3 88.6C177.3 137.3 137.8 176.8 89.0996 176.8V0.300049Z" fill="#0A87B3"/>
<path fill-rule="evenodd" clip-rule="evenodd" d="M54.7996 85.5C106.5 46.8 135 24.6 143.3 29.6C151.5 34.4 116.5 69.1 118.2 74.8C120 80.5 146.8 80.7 147 84.9C147.3 89.1 123.1 94.8 121.3 99.6C119.6 104.5 147 112.9 146.8 118.8C146.5 124.7 114.3 116.6 112.3 120.8C110.3 125 117.6 139 112.7 142.4C107.7 145.7 87.9996 128.2 83.9996 131.3C80.0996 134.4 78.9996 150.2 57.7996 148.2C43.5996 146.9 32.8997 136.3 31.3997 123.2C29.4997 105.5 42.1996 94.8 54.7996 85.5Z" fill="white"/>
<path fill-rule="evenodd" clip-rule="evenodd" d="M89.0996 59.8001C119.3 37.4001 136.9 25.8001 143.3 29.6001C151.5 34.4001 116.5 69.1001 118.2 74.8001C120 80.5001 146.8 80.7001 147 84.9001C147.3 89.1001 123.1 94.8001 121.3 99.6001C119.6 104.5 147 112.9 146.8 118.8C146.5 124.7 114.3 116.6 112.3 120.8C110.3 125 117.6 139 112.7 142.4C108.8 145 96.4996 135.3 89.0996 131.9V59.8001Z" fill="#E5E6E7"/>
</svg>
