<svg width="178" height="177" viewBox="0 0 178 177" fill="none" xmlns="http://www.w3.org/2000/svg">
<path fill-rule="evenodd" clip-rule="evenodd" d="M89.0998 0.400024C137.8 0.400024 177.3 39.9 177.3 88.6C177.3 137.4 137.8 176.9 89.0998 176.9C40.3998 176.9 0.799805 137.4 0.799805 88.6C0.799805 39.9 40.3998 0.400024 89.0998 0.400024Z" fill="#78421B"/>
<path fill-rule="evenodd" clip-rule="evenodd" d="M89.0996 0.400024C137.8 0.400024 177.3 39.9 177.3 88.6C177.3 137.4 137.8 176.9 89.0996 176.9V0.400024Z" fill="#5B3513"/>
<path fill-rule="evenodd" clip-rule="evenodd" d="M44.8999 95.4001C60.6999 95.2001 73.5998 110.4 67.5998 125.3C62.7998 137.2 49.8998 139.3 39.5998 132.6C28.7998 125.8 18.5998 112.4 30.5998 101C34.3998 97.5001 39.4999 95.6001 44.8999 95.4001ZM110.5 23.4001C130.1 23.4001 128.4 55.4001 107.5 54.2001C87.9999 53.0001 88.9999 26.3001 107.7 23.5001C108.6 23.4001 109.5 23.3001 110.5 23.4001ZM55.9999 28.4001C82.3999 29.5001 79.3999 68.7001 54.7999 69.9001C41.7999 70.6001 30.8999 61.0001 32.9999 47.1001C34.5999 36.2001 44.9999 28.0001 55.9999 28.4001ZM145.2 65.7001C158.7 65.6001 163 78.3001 159.3 89.4001C156.6 97.4001 150.2 107.3 143.6 112.6C136 118.7 127 112.5 124.5 104C120.2 89.8001 127.7 65.5001 145.2 65.7001ZM107.5 115.1C120.3 114.8 130.3 128.3 130.1 140.8C129.9 152.1 121.4 163 109.6 162.9C99.5998 162.8 93.2999 155.1 93.7999 145.4C93.9999 141.2 95.3999 136.4 95.7999 131.9C96.7999 124.1 96.8999 114.9 107.5 115.1ZM92.5998 65.4001C111.4 65.5001 117.7 90.1001 105.1 102.9C90.8998 117.4 67.0999 102.7 71.7999 82.2001C74.0999 72.6001 82.6998 65.1001 92.5998 65.4001Z" fill="#B56428"/>
<path fill-rule="evenodd" clip-rule="evenodd" d="M89.0996 108.5V65.6001C90.1996 65.5001 91.2996 65.4001 92.4996 65.4001C111.3 65.5001 117.6 90.1001 105 102.9C100.4 107.6 94.5996 109.2 89.0996 108.5ZM110.5 23.4001C130.1 23.4001 128.4 55.4001 107.5 54.2001C87.9996 53.0001 88.9996 26.3001 107.7 23.5001C108.6 23.4001 109.5 23.3001 110.5 23.4001ZM145.2 65.7001C158.7 65.6001 163 78.3001 159.3 89.4001C156.6 97.4001 150.2 107.3 143.6 112.6C136 118.7 127 112.5 124.5 104C120.2 89.8001 127.7 65.5001 145.2 65.7001ZM107.5 115.1C120.3 114.8 130.3 128.3 130.1 140.8C129.9 152.1 121.4 163 109.6 162.9C99.5996 162.8 93.2996 155.1 93.7996 145.4C93.9996 141.2 95.3996 136.4 95.7996 131.9C96.7996 124.1 96.8996 114.9 107.5 115.1Z" fill="#915022"/>
</svg>
