<svg width="177" height="178" viewBox="0 0 177 178" fill="none" xmlns="http://www.w3.org/2000/svg">
<path fill-rule="evenodd" clip-rule="evenodd" d="M88.7 0.900024C137.5 0.900024 177 40.4 177 89.1C177 137.8 137.5 177.3 88.7 177.3C40 177.3 0.5 137.8 0.5 89.1C0.5 40.4 40 0.900024 88.7 0.900024Z" fill="#65CDF6"/>
<path fill-rule="evenodd" clip-rule="evenodd" d="M88.7002 0.900024C137.5 0.900024 177 40.4 177 89.1C177 137.8 137.5 177.3 88.7002 177.3V0.900024Z" fill="#1FAFDF"/>
<path fill-rule="evenodd" clip-rule="evenodd" d="M88.4998 25.3C91.3998 25.3 93.7998 27.7001 93.7998 30.7001V36.0001L95.5998 34.2001C97.6998 32.1001 101.2 32.1001 103.3 34.2001C105.3 36.3001 105.3 39.8001 103.3 41.9001L93.7998 51.2001V79.8L118.9 65.3L122.3 52.5001C123.1 49.6001 126.1 47.8001 128.9 48.6001C131.8 49.4001 133.6 52.4 132.8 55.3L132.1 57.6001L136.8 54.9001C139.4 53.3001 142.7 54.2001 144.1 56.9001C145.7 59.5001 144.8 62.8001 142.2 64.2001L137.5 66.9001L139.8 67.6001C142.7 68.4001 144.4 71.4001 143.6 74.2001C142.8 77.1001 139.9 78.9001 137 78.1001L124.2 74.7001L99.6998 88.8L123.7 102.7L136.5 99.3C139.4 98.5 142.4 100.3 143.2 103.2C144 106 142.2 109 139.4 109.8L137 110.5L141.7 113.2C144.3 114.6 145.1 118 143.7 120.5C142.3 123.2 138.9 124.1 136.2 122.5L131.6 119.8L132.2 122.1C133 125 131.3 128 128.4 128.8C125.5 129.6 122.5 127.8 121.7 124.9L118.4 112.1L93.5998 97.9001V126.9L103.1 136.2C105.1 138.3 105.1 141.8 103.1 143.9C101 146 97.4998 146 95.3998 143.9L93.5998 142.1V147.4C93.5998 150.4 91.1998 152.8 88.2998 152.8C85.2998 152.8 82.8998 150.4 82.8998 147.4V142.1L81.0998 143.9C79.0998 146 75.6998 146 73.4998 143.9C71.3998 141.8 71.3998 138.3 73.4998 136.2L82.7998 126.9V98.7001L58.6998 112.6L55.3998 125.4C54.5998 128.3 51.5998 130 48.6998 129.2C45.7998 128.4 44.0998 125.4 44.8998 122.6L45.4998 120.2L40.7998 123C38.1998 124.4 34.8998 123.6 33.4998 121C32.0998 118.4 32.8998 115.1 35.4998 113.5L40.0998 110.8L37.7998 110.2C34.9998 109.4 33.1998 106.4 33.9998 103.5C34.7998 100.6 37.7998 98.9001 40.6998 99.6001L53.4998 103L78.1998 88.8L53.0998 74.3L40.2998 77.7001C37.3998 78.4001 34.3998 76.7001 33.6998 73.8C32.8998 70.9 34.5998 67.9001 37.4998 67.1001L39.7998 66.5001L35.0998 63.8C32.4998 62.2001 31.6998 58.9 33.1998 56.3C34.5998 53.7 37.9998 52.9 40.4998 54.3L45.1998 57.0001L44.4998 54.7001C43.6998 51.9001 45.4998 48.9001 48.2998 48.1001C51.1998 47.3001 54.1998 49.0001 54.9998 51.9001L58.3998 64.7001L82.8998 78.8V51.0001L73.5998 41.7001C71.4998 39.6001 71.4998 36.1001 73.5998 34.0001C75.6998 31.9001 79.1998 31.9001 81.1998 34.0001L82.9998 35.8V30.5001C82.9998 27.7001 85.4998 25.3 88.4998 25.3Z" fill="white"/>
<path fill-rule="evenodd" clip-rule="evenodd" d="M88.7 25.3C91.6 25.4 93.8 27.9001 93.8 30.7001V36.0001L95.6 34.2001C97.7 32.1001 101.2 32.1001 103.3 34.2001C105.3 36.3001 105.3 39.8001 103.3 41.9001L93.8 51.2001V79.8L118.9 65.3L122.3 52.5001C123.1 49.6001 126.1 47.8001 128.9 48.6001C131.8 49.4001 133.6 52.4 132.8 55.3L132.1 57.6001L136.8 54.9001C139.4 53.3001 142.7 54.2001 144.1 56.9001C145.7 59.5001 144.8 62.8001 142.2 64.2001L137.5 66.9001L139.8 67.6001C142.7 68.4001 144.4 71.4001 143.6 74.2001C142.8 77.1001 139.9 78.9001 137 78.1001L124.2 74.7001L99.7 88.8L123.7 102.7L136.5 99.3C139.4 98.5 142.4 100.3 143.2 103.2C144 106 142.2 109 139.4 109.8L137 110.5L141.7 113.2C144.3 114.6 145.1 118 143.7 120.5C142.3 123.2 138.9 124.1 136.2 122.5L131.6 119.8L132.2 122.1C133 125 131.3 128 128.4 128.8C125.5 129.6 122.5 127.8 121.7 124.9L118.4 112.1L93.6 97.9001V126.9L103.1 136.2C105.1 138.3 105.1 141.8 103.1 143.9C101 146 97.5 146 95.4 143.9L93.6 142.1V147.4C93.6 150.3 91.4 152.7 88.5 152.8V25.3H88.7Z" fill="#C9EBF9"/>
</svg>
