<svg width="180" height="180" viewBox="0 0 180 180" fill="none" xmlns="http://www.w3.org/2000/svg">
<mask id="path-1-inside-1_196_10" fill="white">
<path d="M139 90C139 77.0044 133.838 64.5411 124.648 55.3518C115.459 46.1625 102.996 41 90 41C77.0044 41 64.5411 46.1625 55.3518 55.3518C46.1625 64.541 41 77.0044 41 90L90 90H139Z"/>
</mask>
<path d="M139 90C139 77.0044 133.838 64.5411 124.648 55.3518C115.459 46.1625 102.996 41 90 41C77.0044 41 64.5411 46.1625 55.3518 55.3518C46.1625 64.541 41 77.0044 41 90L90 90H139Z" fill="#D30000" stroke="black" stroke-width="8" mask="url(#path-1-inside-1_196_10)"/>
<mask id="path-2-inside-2_196_10" fill="white">
<path d="M41 90C41 102.996 46.1625 115.459 55.3518 124.648C64.541 133.838 77.0044 139 90 139C102.996 139 115.459 133.838 124.648 124.648C133.838 115.459 139 102.996 139 90L90 90L41 90Z"/>
</mask>
<path d="M41 90C41 102.996 46.1625 115.459 55.3518 124.648C64.541 133.838 77.0044 139 90 139C102.996 139 115.459 133.838 124.648 124.648C133.838 115.459 139 102.996 139 90L90 90L41 90Z" fill="white" stroke="black" stroke-width="8" mask="url(#path-2-inside-2_196_10)"/>
<circle cx="90.0001" cy="90" r="8.63343" fill="white" stroke="black" stroke-width="4"/>
</svg>
