<svg width="178" height="178" viewBox="0 0 178 178" fill="none" xmlns="http://www.w3.org/2000/svg">
<path fill-rule="evenodd" clip-rule="evenodd" d="M89.1999 0.900024C137.9 0.900024 177.4 40.4 177.4 89.1C177.4 137.8 137.9 177.3 89.1999 177.3C40.3999 177.3 0.899902 137.8 0.899902 89.1C0.899902 40.4 40.3999 0.900024 89.1999 0.900024Z" fill="#C03995"/>
<path fill-rule="evenodd" clip-rule="evenodd" d="M89.1997 0.900024C137.9 0.900024 177.4 40.4 177.4 89.1C177.4 137.8 137.9 177.3 89.1997 177.3V0.900024Z" fill="#B11F83"/>
<path fill-rule="evenodd" clip-rule="evenodd" d="M88.7996 40.4H89.1996H89.4996C131.6 40.4 165.7 80.3 165.7 89.1C165.7 97.9 131.7 137.8 89.4996 137.8H89.1996H88.7996C46.6996 137.8 12.5996 97.9 12.5996 89.1C12.5996 80.3 46.5996 40.4 88.7996 40.4ZM89.1996 67.7C101 67.7 110.6 77.3 110.6 89.1C110.6 100.9 101 110.5 89.1996 110.5C77.2996 110.5 67.7996 100.9 67.7996 89.1C67.7996 77.3 77.2996 67.7 89.1996 67.7ZM88.8997 52.9L89.1996 53L89.3997 52.9C122.1 52.9 148.6 82.6 148.6 89C148.6 95.4 122.1 125.1 89.3997 125.1L89.1996 125L88.8997 125.1C56.1997 125.1 29.6996 95.4 29.6996 89C29.6996 82.6 56.1997 52.9 88.8997 52.9Z" fill="#F3B81A"/>
<path fill-rule="evenodd" clip-rule="evenodd" d="M89.1997 40.4H89.4997C131.6 40.4 165.7 80.3 165.7 89.1C165.7 97.9 131.7 137.8 89.4997 137.8H89.1997V125.1L89.3997 125.2C122.1 125.2 148.6 95.5 148.6 89.1C148.6 82.7 122.1 53 89.3997 53L89.1997 53.1V40.4ZM89.1997 110.4V67.7C101 67.7 110.6 77.3 110.6 89.1C110.6 100.9 101 110.4 89.1997 110.4Z" fill="#F48B20"/>
</svg>
