<svg width="178" height="177" viewBox="0 0 178 177" fill="none" xmlns="http://www.w3.org/2000/svg">
<path fill-rule="evenodd" clip-rule="evenodd" d="M89.1999 0.400024C137.9 0.400024 177.4 39.9 177.4 88.6C177.4 137.4 137.9 176.9 89.1999 176.9C40.3999 176.9 0.899902 137.4 0.899902 88.6C0.899902 39.9 40.3999 0.400024 89.1999 0.400024Z" fill="#A69F97"/>
<path fill-rule="evenodd" clip-rule="evenodd" d="M89.1997 0.400024C137.9 0.400024 177.4 39.9 177.4 88.6C177.4 137.4 137.9 176.9 89.1997 176.9V0.400024Z" fill="#927F6C"/>
<path fill-rule="evenodd" clip-rule="evenodd" d="M38.7997 133.4C28.2997 130.4 27.8997 127.4 31.1997 119.4C43.8997 88.4 62.4997 59.3 78.9997 41.7C82.0997 38.4 86.4997 38.9 89.9997 41.7C95.1997 45.6 96.0997 52.2 101 58.7C102.8 61.1 115.7 60.7 117.5 63.4C119.1 65.7 120.7 68.3 122.3 71C124.2 74.2 126 77.5 127.6 80.5C131.3 87.1 131.9 89.2 127.9 95.7L106.5 130.7C103.2 136.1 100.3 137.9 93.8997 137.9C72.7997 138.2 50.4997 136.7 38.7997 133.4ZM141.7 107.2C143.6 111.2 145.4 115.3 147 119.4C150.3 127.4 150 130.4 139.4 133.4C135.1 134.6 129.3 135.6 122.6 136.3C116.6 137 117.4 133.5 119.9 129.5L131.1 110.8C136.5 102.4 137.4 98 141.7 107.2Z" fill="#8B7E71"/>
<path fill-rule="evenodd" clip-rule="evenodd" d="M89.1996 41C89.3996 41.1 89.7996 41.3 90.0996 41.7C95.2996 45.6 96.1996 52.2 101.1 58.7C102.9 61.1 115.8 60.7 117.6 63.4C119.2 65.7 120.8 68.3 122.4 71C124.3 74.2 126.1 77.5 127.7 80.5C131.4 87.1 132 89.2 128 95.7L106.6 130.7C103.3 136.1 100.4 137.9 93.9996 137.9C92.2996 138 90.6996 138 89.0996 138V41H89.1996ZM114.4 36.9C119 36.9 125 41.7 125 46C125 50.2 119.1 55.6 114.5 55.6C109.8 55.6 108.4 50.3 108.4 46C108.3 41.7 109.7 36.9 114.4 36.9ZM141.7 107.2C143.6 111.2 145.4 115.3 147 119.4C150.3 127.4 150 130.4 139.4 133.4C135.1 134.6 129.3 135.6 122.6 136.3C116.6 137 117.4 133.5 119.9 129.5L131.1 110.8C136.5 102.4 137.4 98 141.7 107.2Z" fill="#745C44"/>
</svg>
