<svg width="177" height="177" viewBox="0 0 177 177" fill="none" xmlns="http://www.w3.org/2000/svg">
<path fill-rule="evenodd" clip-rule="evenodd" d="M88.7 0.400024C137.5 0.400024 177 39.9 177 88.6C177 137.4 137.5 176.9 88.7 176.9C40 176.9 0.5 137.4 0.5 88.6C0.5 39.9 40 0.400024 88.7 0.400024Z" fill="#1FAFDF"/>
<path fill-rule="evenodd" clip-rule="evenodd" d="M88.7002 0.400024C137.5 0.400024 177 39.9 177 88.6C177 137.4 137.5 176.9 88.7002 176.9V0.400024Z" fill="#0A87B3"/>
<path fill-rule="evenodd" clip-rule="evenodd" d="M125.2 32.9C108.6 35 91.3998 42.1 77.2998 52.3C28.2998 87.4 44.5998 144.6 94.2998 138.7C115.3 136.3 127 119.7 126.6 103.2C126.4 94.5 122.9 88 115.6 79.1C102.4 63.3 110.6 45.6 127.1 36.5C131.7 33.8 130.2 32.2 125.2 32.9Z" fill="#C9EBF9"/>
<path fill-rule="evenodd" clip-rule="evenodd" d="M125.2 32.9C113 34.5 100.3 38.8 88.7002 45V139.1C90.6002 139.1 92.4002 138.9 94.3002 138.7C115.3 136.3 127 119.7 126.6 103.2C126.4 94.5 122.9 88 115.6 79.1C102.4 63.3 110.6 45.6 127.1 36.5C131.7 33.8 130.2 32.2 125.2 32.9Z" fill="#65CDF6"/>
<path fill-rule="evenodd" clip-rule="evenodd" d="M105.2 78.3C108.4 78.3 111 81.5 111 85.5C111 89.6 108.4 92.8 105.2 92.8C102 92.8 99.3999 89.6 99.3999 85.5C99.3999 81.5 101.9 78.3 105.2 78.3Z" fill="white"/>
<path fill-rule="evenodd" clip-rule="evenodd" d="M112.8 93.4C114 93.4 115 94.6 115 96.2C115 97.6 114 98.9 112.8 98.9C111.6 98.9 110.7 97.7 110.7 96.2C110.7 94.6 111.6 93.4 112.8 93.4Z" fill="white"/>
</svg>
